<svg width="24" height="24" viewBox="0 0 24 24" fill="none" xmlns="http://www.w3.org/2000/svg">
<g clip-path="url(#clip0_59744_68649)">
<path d="M13.6552 21.5195C14.5655 21.5195 15.3103 20.7747 15.3103 19.8644C15.3103 18.9541 14.5655 18.2092 13.6552 18.2092L15.7241 18.2092C16.6345 18.2092 17.3793 17.4644 17.3793 16.5541C17.3793 15.6437 16.6344 14.8989 15.7241 14.8989L17.3793 14.8989C18.2896 14.8989 19.0344 14.1541 19.0344 13.2437C19.0344 12.3334 18.2896 11.5886 17.3793 11.5886L15.7241 11.5886L22.3448 11.5886C23.2552 11.5886 24 10.8438 24 9.93344C24 9.02308 23.2552 8.27828 22.3448 8.27828L11.5862 8.27828L12.7034 7.53344C14.1517 6.70586 14.8138 4.71963 14.3172 3.3955L14.0689 2.89896C13.7379 2.40241 13.3655 2.48514 13.2413 2.48514C13.1172 2.48514 10.7172 4.84375 8.27583 6.20927C8.27583 6.20927 6.28964 7.40927 4.96547 8.69205L3.72412 8.69205C1.65516 8.69191 -4.88362e-07 10.3471 -3.97925e-07 12.4161L-2.1705e-07 16.554C-1.46508e-07 18.1678 1.36552 19.823 2.93794 20.1954C3.31036 20.2782 3.8483 20.4437 4.13794 20.692C4.55175 21.0644 5.58624 21.5195 7.03448 21.5195L13.6552 21.5195Z" fill="#FDC794"/>
<path d="M10.345 8.69207C10.345 8.52655 10.4278 8.40243 10.5933 8.31965L11.4209 7.90583C11.6278 7.82305 11.8761 7.90583 11.9588 8.07135C12.0416 8.27825 11.9588 8.5265 11.7933 8.60928L10.9658 9.0231C10.7588 9.10588 10.5106 9.0231 10.4278 8.85758C10.345 8.81624 10.345 8.77485 10.345 8.69207ZM10.345 11.5887C10.345 11.3404 10.5105 11.1748 10.7588 11.1748L17.7933 11.1748C18.0416 11.1748 18.2071 11.3404 18.2071 11.5887C18.2071 11.837 18.0416 12.0025 17.7933 12.0025L10.7588 12.0025C10.5105 12.0024 10.345 11.8369 10.345 11.5887ZM10.7588 14.899C10.7588 14.6507 10.9243 14.4852 11.1726 14.4852L15.7243 14.4852C15.9726 14.4852 16.1381 14.6507 16.1381 14.899C16.1381 15.1473 15.9726 15.3128 15.7243 15.3128L11.1726 15.3128C10.9243 15.3128 10.7588 15.1473 10.7588 14.899ZM10.345 18.2093C10.345 17.961 10.5105 17.7955 10.7588 17.7955L13.6554 17.7955C13.9037 17.7955 14.0692 17.961 14.0692 18.2093C14.0692 18.4576 13.9037 18.6231 13.6554 18.6231L10.7588 18.6231C10.5105 18.6231 10.345 18.4576 10.345 18.2093ZM3.31055 18.6231C3.31055 18.4576 3.43467 18.2921 3.60019 18.2093C3.84848 18.1679 4.05534 18.2921 4.13812 18.499L4.17952 18.7473C4.42781 19.6576 4.55194 20.1542 5.08988 20.3197C5.29678 20.4025 5.42091 20.6093 5.33817 20.8576C5.25539 21.0645 5.04853 21.1887 4.80023 21.1059C3.80714 20.7749 3.60023 19.8645 3.35194 18.9542L3.31055 18.7473L3.31055 18.6231ZM3.31055 10.761C3.31055 10.6783 3.35194 10.5955 3.39333 10.5127C3.60023 10.2644 3.76575 10.0576 3.93127 9.80929C4.13817 9.47825 4.38642 9.18861 4.67611 8.85758C4.84162 8.69207 5.08992 8.69207 5.25544 8.81619C5.42095 8.98171 5.42095 9.23 5.29683 9.39552C5.04853 9.68516 4.84167 9.97485 4.63477 10.2645C4.46925 10.5128 4.30373 10.761 4.05544 11.0507C3.88992 11.2162 3.64162 11.2576 3.47611 11.0921C3.35189 11.0093 3.31055 10.8852 3.31055 10.761Z" fill="#F9A671"/>
</g>
<defs>
<clipPath id="clip0_59744_68649">
<rect width="24" height="24" fill="white" transform="translate(0 24) rotate(-90)"/>
</clipPath>
</defs>
</svg>
