<svg width="22" height="24" viewBox="0 0 22 24" fill="none" xmlns="http://www.w3.org/2000/svg">
<path d="M11.0157 0.310553C6.9632 0.305246 3.66109 3.60289 3.66113 7.65535C3.66118 10.3493 5.11181 12.7042 7.27438 13.9822C7.65841 14.2092 7.89083 14.6251 7.89083 15.0712V16.8602C7.96398 16.8296 8.04248 16.8139 8.12176 16.814H13.89C13.9719 16.814 14.0498 16.8305 14.1209 16.8602V15.0711C14.1209 14.6198 14.3621 14.2051 14.7502 13.9746C16.9057 12.6948 18.3506 10.344 18.3506 7.65521C18.3506 3.60214 15.0676 0.31586 11.0157 0.310553Z" fill="#FFE07D"/>
<path d="M9.83201 15.0713C9.83201 14.6252 9.59959 14.2092 9.21561 13.9823C7.05304 12.7042 5.60236 10.3494 5.60236 7.6554C5.60231 3.9346 8.38607 0.850596 11.9783 0.37466C11.6592 0.332411 11.3376 0.310997 11.0157 0.310553C6.9632 0.305246 3.66109 3.60289 3.66113 7.65535C3.66118 10.3493 5.11181 12.7042 7.27438 13.9822C7.65841 14.2092 7.89083 14.6251 7.89083 15.0712V16.8602C7.96398 16.8296 8.04248 16.8139 8.12176 16.814H9.83201V15.0713Z" fill="#FFC250"/>
<path d="M16.1292 6.21802C15.7481 4.79759 14.7688 3.60995 13.4425 2.95964C13.401 2.9393 13.3638 2.91096 13.3332 2.87625C13.3026 2.84155 13.2791 2.80115 13.2641 2.75736C13.2491 2.71358 13.2429 2.66727 13.2458 2.62108C13.2487 2.57489 13.2607 2.52973 13.2811 2.48817C13.3015 2.44662 13.3298 2.40949 13.3646 2.3789C13.3993 2.34831 13.4397 2.32487 13.4835 2.30992C13.5273 2.29496 13.5736 2.28878 13.6198 2.29173C13.666 2.29468 13.7112 2.30671 13.7527 2.32712C15.2616 3.06695 16.3758 4.41863 16.8096 6.03543C16.8339 6.12565 16.8212 6.22181 16.7746 6.30273C16.7279 6.38365 16.651 6.44272 16.5607 6.46693C16.4705 6.49115 16.3744 6.47853 16.2934 6.43185C16.2125 6.38517 16.1534 6.30825 16.1292 6.21802Z" fill="#FFEAC8"/>
<path d="M9.58301 21.9717V22.2297C9.58301 23.0121 10.2231 23.6522 11.0054 23.6522C11.7877 23.6522 12.4277 23.0121 12.4277 22.2297V21.9717H9.58301Z" fill="#8479C2"/>
<path d="M10.8563 22.2297V21.9717H9.58301V22.2297C9.58301 23.0121 10.2231 23.6522 11.0054 23.6522C11.2339 23.6522 11.4501 23.5972 11.642 23.5004C11.1772 23.2657 10.8563 22.7835 10.8563 22.2297Z" fill="#6E60B8"/>
<path d="M1.95258 7.81989H0.740904C0.647486 7.81989 0.557895 7.78278 0.491838 7.71672C0.425782 7.65067 0.388672 7.56108 0.388672 7.46766C0.388672 7.37424 0.425782 7.28465 0.491838 7.21859C0.557895 7.15254 0.647486 7.11543 0.740904 7.11543H1.95258C2.046 7.11543 2.13559 7.15254 2.20165 7.21859C2.26771 7.28465 2.30482 7.37424 2.30482 7.46766C2.30482 7.56108 2.26771 7.65067 2.20165 7.71672C2.13559 7.78278 2.046 7.81989 1.95258 7.81989ZM2.29843 5.58467L1.16556 5.15471C1.12213 5.13843 1.08235 5.11374 1.04849 5.08205C1.01463 5.05036 0.98736 5.01229 0.968249 4.97004C0.949138 4.92778 0.93856 4.88217 0.937122 4.83581C0.935684 4.78946 0.943414 4.74328 0.959869 4.69992C0.976323 4.65656 1.00118 4.61687 1.03301 4.58314C1.06484 4.54941 1.10301 4.5223 1.14535 4.50336C1.18768 4.48443 1.23334 4.47403 1.2797 4.47278C1.32606 4.47153 1.37221 4.47945 1.4155 4.49608L2.54837 4.92604C2.5918 4.94232 2.63158 4.96701 2.66544 4.99871C2.6993 5.0304 2.72657 5.06846 2.74568 5.11072C2.76479 5.15298 2.77537 5.19859 2.77681 5.24494C2.77825 5.2913 2.77052 5.33748 2.75406 5.38084C2.73761 5.4242 2.71275 5.46388 2.68092 5.49761C2.64909 5.53134 2.61092 5.55845 2.56858 5.57739C2.52625 5.59633 2.48059 5.60672 2.43423 5.60797C2.38787 5.60922 2.34172 5.6013 2.29843 5.58467ZM0.961214 10.2349C0.92807 10.1476 0.930979 10.0506 0.9693 9.96543C1.00762 9.88023 1.07822 9.81375 1.16556 9.78061L2.29843 9.35065C2.38567 9.31795 2.48232 9.32114 2.56721 9.35953C2.6521 9.39793 2.71832 9.46839 2.75138 9.5555C2.78443 9.6426 2.78163 9.73926 2.74358 9.82431C2.70554 9.90935 2.63535 9.97586 2.54837 10.0093L1.4155 10.4392C1.32816 10.4724 1.23123 10.4695 1.14604 10.4311C1.06084 10.3928 0.994359 10.3222 0.961214 10.2349ZM21.2707 7.81989H20.059C19.9656 7.81989 19.876 7.78278 19.8099 7.71672C19.7439 7.65067 19.7067 7.56108 19.7067 7.46766C19.7067 7.37424 19.7439 7.28465 19.8099 7.21859C19.876 7.15254 19.9656 7.11543 20.059 7.11543H21.2707C21.3641 7.11543 21.4537 7.15254 21.5198 7.21859C21.5858 7.28465 21.6229 7.37424 21.6229 7.46766C21.6229 7.56108 21.5858 7.65067 21.5198 7.71672C21.4537 7.78278 21.3641 7.81989 21.2707 7.81989ZM19.2589 5.38033C19.2258 5.29299 19.2287 5.19606 19.267 5.11087C19.3053 5.02567 19.3759 4.95919 19.4632 4.92604L20.5961 4.49608C20.6394 4.47945 20.6856 4.47153 20.7319 4.47278C20.7783 4.47403 20.8239 4.48443 20.8663 4.50336C20.9086 4.5223 20.9468 4.54941 20.9786 4.58314C21.0104 4.61687 21.0353 4.65656 21.0517 4.69992C21.0682 4.74328 21.0759 4.78946 21.0745 4.83581C21.073 4.88217 21.0625 4.92778 21.0434 4.97004C21.0243 5.01229 20.997 5.05036 20.9631 5.08205C20.9293 5.11374 20.8895 5.13843 20.8461 5.15471L19.7132 5.58467C19.6258 5.6178 19.5289 5.61489 19.4437 5.57657C19.3585 5.53825 19.2921 5.46766 19.2589 5.38033ZM20.5962 10.4392L19.4633 10.0093C19.4199 9.993 19.3801 9.9683 19.3462 9.93661C19.3124 9.90492 19.2851 9.86686 19.266 9.8246C19.2469 9.78234 19.2363 9.73673 19.2348 9.69037C19.2334 9.64402 19.2411 9.59784 19.2576 9.55448C19.2741 9.51112 19.2989 9.47144 19.3307 9.43771C19.3626 9.40398 19.4007 9.37686 19.4431 9.35793C19.4854 9.33899 19.5311 9.3286 19.5774 9.32735C19.6238 9.3261 19.6699 9.33402 19.7132 9.35065L20.8461 9.78061C20.8895 9.79688 20.9293 9.82158 20.9632 9.85327C20.997 9.88496 21.0243 9.92303 21.0434 9.96528C21.0625 10.0075 21.0731 10.0532 21.0745 10.0995C21.076 10.1459 21.0682 10.192 21.0518 10.2354C21.0353 10.2788 21.0105 10.3184 20.9787 10.3522C20.9468 10.3859 20.9086 10.413 20.8663 10.432C20.824 10.4509 20.7783 10.4613 20.732 10.4625C20.6856 10.4638 20.6395 10.4559 20.5962 10.4392Z" fill="#FFC250"/>
<path d="M13.4202 20.2412H8.59069C8.25367 20.2412 7.97949 20.5154 7.97949 20.8524V21.3727C7.97949 21.7097 8.25367 21.9839 8.59069 21.9839H13.4202C13.7572 21.9839 14.0314 21.7097 14.0314 21.3727V20.8524C14.0314 20.5154 13.7572 20.2412 13.4202 20.2412Z" fill="#EFECEF"/>
<path d="M13.4202 21.1124H8.59069C8.31468 21.1124 8.08108 20.9284 8.00546 20.6768C7.98828 20.7337 7.97953 20.7928 7.97949 20.8523V21.3725C7.97949 21.7096 8.25367 21.9837 8.59069 21.9837H13.4202C13.7572 21.9837 14.0314 21.7096 14.0314 21.3725V20.8523C14.0314 20.7913 14.0221 20.7324 14.0054 20.6768C13.9298 20.9284 13.6962 21.1124 13.4202 21.1124Z" fill="#E2DFE2"/>
<path d="M13.8902 18.5215H8.12194C7.78492 18.5215 7.51074 18.7957 7.51074 19.1327V19.6529C7.51074 19.99 7.78492 20.2641 8.12194 20.2641H13.8902C14.2272 20.2641 14.5014 19.99 14.5014 19.6529V19.1327C14.5014 18.7957 14.2272 18.5215 13.8902 18.5215Z" fill="#EFECEF"/>
<path d="M13.8902 19.3927H8.12194C7.84597 19.3927 7.61237 19.2088 7.53671 18.957C7.51953 19.014 7.51078 19.0731 7.51074 19.1325V19.6528C7.51074 19.9898 7.78492 20.264 8.12194 20.264H13.8902C14.2272 20.264 14.5014 19.9898 14.5014 19.6528V19.1325C14.5014 19.0715 14.4921 19.0127 14.4754 18.957C14.3998 19.2088 14.1662 19.3927 13.8902 19.3927Z" fill="#E2DFE2"/>
<path d="M13.8902 16.8027H8.12194C7.78492 16.8027 7.51074 17.0769 7.51074 17.4139V17.9342C7.51074 18.2712 7.78492 18.5454 8.12194 18.5454H13.8902C14.2272 18.5454 14.5014 18.2712 14.5014 17.9342V17.4139C14.5014 17.0769 14.2272 16.8027 13.8902 16.8027Z" fill="#EFECEF"/>
<path d="M13.8902 17.6739H8.12194C7.84597 17.6739 7.61237 17.49 7.53671 17.2383C7.51953 17.2952 7.51078 17.3543 7.51074 17.4138V17.9341C7.51074 18.2711 7.78492 18.5453 8.12194 18.5453H13.8902C14.2272 18.5453 14.5014 18.2711 14.5014 17.9341V17.4138C14.5014 17.3528 14.4921 17.2939 14.4754 17.2383C14.3998 17.49 14.1662 17.6739 13.8902 17.6739Z" fill="#E2DFE2"/>
<path d="M13.7421 2.32233C13.7006 2.30154 13.6553 2.28919 13.6089 2.28599C13.5625 2.28279 13.516 2.2888 13.472 2.30368C13.4279 2.31855 13.3872 2.34199 13.3523 2.37266C13.3174 2.40332 13.2889 2.44059 13.2684 2.48233C13.2479 2.52407 13.2359 2.56944 13.2331 2.61584C13.2302 2.66224 13.2366 2.70874 13.2518 2.75266C13.267 2.79659 13.2908 2.83707 13.3217 2.87177C13.3527 2.90647 13.3901 2.9347 13.432 2.95484C14.7583 3.6052 15.7376 4.79284 16.1187 6.21323C16.1307 6.25791 16.1514 6.29979 16.1796 6.33648C16.2077 6.37317 16.2429 6.40395 16.2829 6.42707C16.323 6.45018 16.3672 6.46518 16.4131 6.4712C16.459 6.47722 16.5056 6.47415 16.5503 6.46216C16.5949 6.45017 16.6368 6.4295 16.6735 6.40133C16.7102 6.37315 16.741 6.33802 16.7641 6.29795C16.7872 6.25788 16.8022 6.21365 16.8082 6.16778C16.8143 6.12191 16.8112 6.07531 16.7992 6.03063C16.3653 4.41379 15.251 3.06216 13.7421 2.32233ZM2.29407 7.46328C2.29407 7.36986 2.25696 7.28027 2.19091 7.21421C2.12485 7.14816 2.03526 7.11105 1.94184 7.11105H0.730162C0.535589 7.11105 0.37793 7.26875 0.37793 7.46328C0.37793 7.6578 0.535589 7.81551 0.730162 7.81551H1.94184C2.03526 7.81551 2.12485 7.7784 2.19091 7.71234C2.25696 7.64629 2.29407 7.5567 2.29407 7.46328ZM2.53763 4.92161L1.40476 4.49166C1.22301 4.42271 1.01951 4.5141 0.950472 4.696C0.881434 4.87789 0.972921 5.08129 1.15481 5.15028L2.28769 5.58024C2.37493 5.61294 2.47157 5.60975 2.55646 5.57136C2.64136 5.53296 2.70758 5.4625 2.74063 5.37539C2.77369 5.28828 2.77089 5.19163 2.73284 5.10658C2.6948 5.02153 2.6246 4.95503 2.53763 4.92161ZM2.28769 9.34622L1.15481 9.77618C1.06784 9.80959 0.99765 9.8761 0.959603 9.96114C0.921557 10.0462 0.918755 10.1428 0.951812 10.23C0.984868 10.3171 1.05109 10.3875 1.13598 10.4259C1.22087 10.4643 1.31752 10.4675 1.40476 10.4348L2.53763 10.0048C2.6246 9.97144 2.6948 9.90493 2.73284 9.81988C2.77089 9.73483 2.77369 9.63818 2.74063 9.55107C2.70758 9.46396 2.64136 9.3935 2.55646 9.35511C2.47157 9.31671 2.37493 9.31352 2.28769 9.34622ZM21.26 7.11105H20.0482C19.8537 7.11105 19.696 7.26875 19.696 7.46328C19.696 7.6578 19.8537 7.81551 20.0482 7.81551H21.26C21.4545 7.81551 21.6122 7.6578 21.6122 7.46328C21.6122 7.26875 21.4545 7.11105 21.26 7.11105ZM19.7025 5.58029L20.8354 5.15033C20.9223 5.11692 20.9925 5.05041 21.0306 4.96536C21.0686 4.88032 21.0714 4.78366 21.0384 4.69655C21.0053 4.60945 20.9391 4.53898 20.8542 4.50059C20.7693 4.4622 20.6727 4.459 20.5854 4.4917L19.4525 4.92166C19.3656 4.95507 19.2954 5.02158 19.2573 5.10663C19.2193 5.19167 19.2165 5.28833 19.2495 5.37544C19.2826 5.46255 19.3488 5.53301 19.4337 5.5714C19.5186 5.60979 19.6152 5.61299 19.7025 5.58029ZM20.8354 9.77618L19.7025 9.34622C19.6151 9.31309 19.5182 9.316 19.433 9.35432C19.3478 9.39264 19.2814 9.46323 19.2482 9.55056C19.2318 9.59381 19.224 9.63986 19.2254 9.6861C19.2268 9.73234 19.2373 9.77785 19.2563 9.82003C19.2752 9.86222 19.3023 9.90025 19.336 9.93196C19.3697 9.96367 19.4093 9.98844 19.4525 10.0048L20.5854 10.4348C20.6727 10.4675 20.7693 10.4643 20.8542 10.4259C20.9391 10.3875 21.0053 10.3171 21.0384 10.23C21.0714 10.1428 21.0686 10.0462 21.0306 9.96114C20.9925 9.8761 20.9223 9.80959 20.8354 9.77618Z" fill="black"/>
<path d="M11.7777 0.702309C14.9587 1.05656 17.485 3.51848 17.9212 6.68918C17.9275 6.73501 17.9427 6.77915 17.9661 6.81907C17.9895 6.859 18.0205 6.89393 18.0573 6.92188C18.0942 6.94983 18.1362 6.97024 18.1809 6.98195C18.2257 6.99366 18.2723 6.99644 18.3181 6.99013C18.364 6.98383 18.4081 6.96857 18.448 6.94521C18.4879 6.92185 18.5229 6.89086 18.5508 6.854C18.5788 6.81713 18.5992 6.77513 18.6109 6.73038C18.6226 6.68563 18.6253 6.63901 18.619 6.59319C18.388 4.91309 17.5891 3.33245 16.3698 2.14247C15.1484 0.950422 13.5452 0.190351 11.8556 0.00216476C11.7628 -0.00817349 11.6697 0.0187942 11.5967 0.0771352C11.5237 0.135476 11.4769 0.220412 11.4666 0.313257C11.4563 0.406101 11.4832 0.499251 11.5416 0.572212C11.5999 0.645174 11.6848 0.691971 11.7777 0.702309ZM18.3415 7.93397C18.1486 7.91768 17.9772 8.06106 17.9606 8.25488C17.7692 10.4932 16.4976 12.5167 14.5592 13.6676C14.0648 13.9611 13.7576 14.4973 13.7576 15.0669V16.4575H12.267V13.6574C12.2672 13.4948 12.3212 13.3369 12.4203 13.2081L12.9244 12.5555C13.1186 12.3031 13.2242 11.9938 13.2247 11.6754V9.1286C13.3181 9.12855 13.4076 9.09142 13.4736 9.02537C13.5397 8.95932 13.5767 8.86976 13.5767 8.77637C13.5767 8.68299 13.5397 8.59342 13.4736 8.52737C13.4076 8.46132 13.3181 8.42419 13.2247 8.42414V8.38572C13.2247 8.1912 13.067 8.03349 12.8725 8.03349C12.6779 8.03349 12.5202 8.1912 12.5202 8.38572V8.42409H9.46944V8.38572C9.46944 8.1912 9.31178 8.03349 9.1172 8.03349C8.92263 8.03349 8.76497 8.1912 8.76497 8.38572V8.42409C8.67155 8.42409 8.58196 8.4612 8.5159 8.52726C8.44985 8.59332 8.41274 8.68291 8.41274 8.77633C8.41274 8.86974 8.44985 8.95933 8.5159 9.02539C8.58196 9.09145 8.67155 9.12856 8.76497 9.12856V11.6754C8.76552 11.9938 8.87107 12.3031 9.06526 12.5554L9.56933 13.208C9.66849 13.3368 9.7224 13.4948 9.72271 13.6574V16.4574H8.23207V15.0669C8.23207 14.496 7.92957 13.9625 7.4426 13.6747C5.32056 12.4206 4.00236 10.1125 4.00232 7.65101C4.00227 4.08618 6.67196 1.09902 10.2122 0.702591C10.4055 0.68094 10.5447 0.506656 10.523 0.31335C10.5014 0.120045 10.3277 -0.019204 10.1338 0.00249351C8.26715 0.211532 6.54201 1.10047 5.27618 2.5056C4.00044 3.92176 3.2978 5.7491 3.29785 7.65101C3.29795 10.4582 4.80597 12.9347 7.08412 14.2812C7.35764 14.4428 7.52755 14.7439 7.52755 15.0669V16.6586C7.30377 16.8329 7.15898 17.1041 7.15898 17.4091V17.9293C7.15898 18.1564 7.23919 18.365 7.37243 18.5288C7.23425 18.698 7.15884 18.9098 7.15898 19.1283V19.6485C7.15898 20.0237 7.37774 20.3479 7.69395 20.5028C7.65079 20.6126 7.62856 20.7295 7.62839 20.8474V21.3677C7.62839 21.8924 8.05529 22.3194 8.58007 22.3194H9.22273C9.27186 23.2543 10.0479 23.9998 10.9948 23.9998C11.9417 23.9998 12.7178 23.2543 12.7669 22.3194H13.4096C13.9343 22.3194 14.3612 21.8925 14.3612 21.3677V20.8474C14.3612 20.7258 14.3374 20.6098 14.2957 20.5028C14.6118 20.3479 14.8307 20.0237 14.8307 19.6485V19.1283C14.8307 18.9012 14.7504 18.6926 14.6172 18.5288C14.7554 18.3596 14.8308 18.1478 14.8307 17.9293V17.4091C14.8307 17.1041 14.6859 16.8329 14.4621 16.6586V15.0668C14.4621 14.7446 14.6372 14.4406 14.9189 14.2732C17.0523 13.0065 18.4518 10.7791 18.6625 8.31481C18.6704 8.22175 18.641 8.12936 18.5808 8.05794C18.5207 7.98653 18.4346 7.94194 18.3415 7.93397ZM9.62268 12.1249C9.52352 11.9961 9.46963 11.8381 9.46934 11.6755V9.1287H12.5201V11.6755C12.5201 11.8373 12.4657 11.9969 12.3668 12.1249L11.8627 12.7775C11.6685 13.0298 11.563 13.3391 11.5624 13.6575V16.4576H10.427V13.6575C10.4265 13.3391 10.3209 13.0298 10.1267 12.7775L9.62268 12.1249ZM10.9947 23.2955C10.4364 23.2955 9.97656 22.8657 9.92875 22.3195H12.0608C12.013 22.8656 11.5531 23.2955 10.9947 23.2955ZM13.6567 21.3678C13.6567 21.4334 13.6306 21.4962 13.5842 21.5426C13.5379 21.5889 13.4751 21.615 13.4095 21.6151H8.58002C8.51448 21.615 8.45164 21.5889 8.4053 21.5426C8.35895 21.4962 8.33288 21.4334 8.3328 21.3678V20.8476C8.33288 20.782 8.35895 20.7192 8.4053 20.6728C8.45164 20.6265 8.51448 20.6004 8.58002 20.6003H13.4095C13.4751 20.6004 13.5379 20.6265 13.5842 20.6728C13.6306 20.7192 13.6567 20.782 13.6567 20.8476V21.3678ZM14.1261 19.6487C14.1261 19.7142 14.1 19.7771 14.0536 19.8234C14.0073 19.8698 13.9444 19.8958 13.8789 19.8959H8.11066C8.04511 19.8958 7.98226 19.8698 7.9359 19.8234C7.88955 19.7771 7.86347 19.7142 7.8634 19.6487V19.1284C7.86347 19.0628 7.88955 19 7.9359 18.9536C7.98226 18.9073 8.04511 18.8812 8.11066 18.8812H13.8789C13.9444 18.8812 14.0073 18.9073 14.0536 18.9536C14.1 19 14.1261 19.0628 14.1261 19.1284V19.6487ZM14.1261 17.9295C14.1261 17.995 14.1 18.0579 14.0536 18.1042C14.0073 18.1506 13.9444 18.1766 13.8789 18.1767H8.11066C8.04511 18.1766 7.98226 18.1506 7.9359 18.1042C7.88955 18.0579 7.86347 17.995 7.8634 17.9295V17.4092C7.8634 17.2689 7.98109 17.162 8.11066 17.162H13.8789C14.0141 17.162 14.1261 17.2739 14.1261 17.4092V17.9295Z" fill="black"/>
</svg>
