<svg width="81" height="68" viewBox="0 0 81 68" fill="none" xmlns="http://www.w3.org/2000/svg">
<path d="M10.5282 44.353V56.9509H9.21377V51.1384H1.33194V56.9509H-0.000183105V44.353H1.33194V49.9676H9.21503V44.353H10.5295H10.5282Z" fill="#036E49"/>
<path d="M25.7698 53.5859H18.7513L17.2389 56.9509H15.8526L21.6121 44.353H22.9253L28.6848 56.9509H27.2809L25.7685 53.5859H25.7698ZM25.2833 52.5058L22.2599 45.7393L19.2365 52.5058H25.2833Z" fill="#036E49"/>
<path d="M44.5395 44.353V56.9509H43.4418L35.3432 46.7287V56.9509H34.0111V44.353H35.1088L43.2251 54.5752V44.353H44.5383H44.5395Z" fill="#036E49"/>
<path d="M62.4088 44.353V56.9509H61.3111L53.2125 46.7287V56.9509H51.8804V44.353H52.9781L61.0944 54.5752V44.353H62.4076H62.4088Z" fill="#036E49"/>
<path d="M77.6509 53.5859H70.6324L69.12 56.9509H67.7337L73.4932 44.353H74.8077L80.5672 56.9509H79.1632L77.6509 53.5859ZM77.1644 52.5058L74.141 45.7393L71.1176 52.5058H77.1644Z" fill="#036E49"/>
<path d="M17.9588 60.2061V67.9984H17.1459V64.4028H12.2698V67.9984H11.4469V60.2061H12.2698V63.6794H17.1459V60.2061H17.9588Z" fill="#FD707B"/>
<path d="M28.8977 67.2863V67.9984H23.3877V60.2061H28.7313V60.9181H24.2119V63.6907H28.2423V64.3927H24.2119V67.2876H28.8989L28.8977 67.2863Z" fill="#FD707B"/>
<path d="M38.6134 65.9179H34.2717L33.3366 67.9999H32.4796L36.0424 60.2075H36.8553L40.4182 67.9999H39.5498L38.6147 65.9179H38.6134ZM38.3122 65.2499L36.442 61.0645L34.5717 65.2499H38.3122Z" fill="#FD707B"/>
<path d="M44.5997 60.2061H45.4226V67.2863H49.787V67.9984H44.5997V60.2061Z" fill="#FD707B"/>
<path d="M54.8395 60.9181H52.1009V60.2061H58.401V60.9181H55.6624V67.9984H54.8382V60.9181H54.8395Z" fill="#FD707B"/>
<path d="M69.1197 60.2061V67.9984H68.3068V64.4028H63.4308V67.9984H62.6078V60.2061H63.4308V63.6794H68.3068V60.2061H69.1197Z" fill="#FD707B"/>
<path d="M35.2346 23.1226C36.3058 26.2859 37.7363 32.8683 34.4772 39.9222H37.362C37.362 39.9222 40.9147 29.9609 36.1546 23.1226H35.2346Z" fill="#FD707B"/>
<path d="M46.0174 23.1226H45.0974C40.3385 29.9596 43.89 39.9222 43.89 39.9222H46.7748C43.5157 32.8683 44.9461 26.2859 46.0174 23.1226Z" fill="#FD707B"/>
<path d="M45.981 23.1226H43.3357C42.461 26.8215 41.3747 34.8961 46.809 39.9222C46.809 39.9222 42.8253 32.155 45.981 23.1226Z" fill="#FD707B"/>
<path d="M35.3062 23.1226C38.4619 32.155 34.4782 39.9222 34.4782 39.9222C39.9125 34.8961 38.8249 26.8228 37.9515 23.1226H35.3062Z" fill="#FD707B"/>
<path d="M47.6247 31.6168C47.544 30.4598 46.6757 29.5146 45.5591 29.3684C45.4015 29.3483 45.2352 29.3369 45.065 29.3369C44.329 29.3369 43.6044 29.531 43.0234 29.686C42.3151 29.8763 41.5564 30.1372 40.7032 30.4863C40.1928 30.6942 39.6874 30.9236 39.1984 31.1442C38.8354 31.308 38.4599 31.4781 38.0906 31.6357L38.0011 31.6735C37.2109 32.0112 36.3943 32.3603 35.5952 32.3843C35.5738 32.3843 35.5537 32.3843 35.5322 32.3843C35.1768 32.3843 34.8479 32.2935 34.5542 32.1146L33.6267 31.55L33.6242 32.6351C33.6216 33.4139 33.8497 34.0542 34.282 34.4877C34.2883 34.494 34.2959 34.499 34.3022 34.5053C34.4723 34.4764 34.6437 34.4512 34.8151 34.4146C35.2424 34.3201 35.6671 34.2054 36.0905 34.0945C36.9047 33.879 37.6545 33.5753 38.4258 33.24C39.2022 32.9023 39.9886 32.5998 40.7927 32.3351C41.1909 32.2041 41.5879 32.0755 41.9761 31.9167C42.1097 31.8625 42.2382 31.8096 42.3655 31.7655C42.4751 31.5185 42.7045 31.3307 43.0561 31.3307C43.4078 31.3307 43.7367 31.3332 44.077 31.3345C44.7121 31.158 45.3549 31.0307 46.0228 31.0194C46.3178 31.0144 46.527 31.1429 46.6505 31.3282C46.8685 31.3471 47.0865 31.3836 47.3033 31.4492C47.4344 31.4882 47.5402 31.5512 47.6234 31.6281V31.6155L47.6247 31.6168Z" fill="white"/>
<path d="M45.4796 29.9747C44.7159 29.8751 43.9169 30.0805 43.1821 30.2771C42.4474 30.4738 41.6685 30.7523 40.935 31.0522C40.0566 31.4114 39.2034 31.826 38.3313 32.1978C37.4592 32.5696 36.5606 32.9679 35.6128 32.9956C35.1213 33.0094 34.6563 32.8935 34.2366 32.6377C34.2328 34.0114 35.0596 34.6819 36.34 34.3995C38.1989 33.9887 39.9432 33.1216 41.7101 32.4398C42.5747 32.1058 43.4531 31.8008 44.3542 31.5803C45.2553 31.3597 46.1501 31.2173 47.0134 31.6584C46.9541 30.7951 46.2963 30.0818 45.4783 29.9747H45.4796Z" fill="#FD707B"/>
<path d="M53.0969 28.3248C53.2796 24.7405 51.2165 22.375 47.6109 22.5312C48.2927 23.0038 48.9556 23.3592 49.5341 23.8369C50.1151 24.3171 50.6003 24.8653 50.8914 25.5899C49.7811 24.4393 48.5914 23.4197 46.9618 22.9307C46.8862 24.2515 47.3336 25.3366 48.1704 26.2629C49.2064 27.4111 51.9336 28.5403 53.0956 28.3248H53.0969Z" fill="#036E49"/>
<path d="M28.1558 29.1236C27.9731 25.5393 30.0361 23.1738 33.6418 23.3301C32.96 23.8027 32.2971 24.1581 31.7186 24.6357C31.1376 25.1159 30.6524 25.6641 30.3613 26.3888C31.4716 25.2381 32.6613 24.2186 34.2909 23.7296C34.3665 25.0503 33.9191 26.1355 33.0823 27.0618C32.0463 28.2099 29.319 29.3391 28.1571 29.1236H28.1558Z" fill="#036E49"/>
<path d="M55.2569 13.5684C55.4825 18.0021 52.9317 20.9285 48.4703 20.7357C49.3134 20.1522 50.1351 19.7111 50.8497 19.12C51.5681 18.5264 52.168 17.8484 52.5284 16.9511C51.1547 18.3739 49.6827 19.6355 47.6675 20.2417C47.5742 18.6071 48.1287 17.2649 49.1622 16.1193C50.4439 14.6989 53.8177 13.3025 55.2544 13.5697L55.2569 13.5684Z" fill="#036E49"/>
<path d="M29.1425 18.2427C30.2579 19.8584 31.9757 20.5629 33.8069 21.2233C29.4652 21.9883 26.7039 20.0512 25.9818 15.5634C26.07 15.4222 26.2212 15.3806 26.3636 15.3857C28.5729 15.4777 30.7671 15.6428 32.5415 17.2005C33.5611 18.0953 34.1522 19.2257 34.3589 20.6221C32.3475 20.3134 30.6801 19.4387 29.1425 18.2415V18.2427Z" fill="#036E49"/>
<path d="M50.8701 7.94608C51.8166 10.4742 51.4196 13.5947 47.5594 14.7453C48.0484 14.1442 48.5462 13.6438 48.9205 13.0452C49.2948 12.4453 49.6401 11.8391 49.6741 11.0968C48.9595 12.3709 48.2021 13.5934 46.9343 14.4882C46.6053 13.9375 46.5789 13.3615 46.6305 12.7868C46.7881 11.0287 47.7812 9.79366 49.1788 8.83333C49.693 8.48045 50.2123 8.12378 50.8701 7.94482V7.94608Z" fill="#036E49"/>
<path d="M30.0339 8.79569C32.8658 9.01498 35.8514 11.3289 35.2944 14.1897C33.9005 13.6163 32.8507 12.656 31.9143 11.412C31.9773 12.2464 32.2899 12.5904 34.6542 14.5401C31.4089 14.496 29.5197 12.0976 30.0339 8.79443V8.79569Z" fill="#036E49"/>
<path d="M40.6542 10.8538C43.8691 13.1891 44.154 18.5529 41.1507 20.5152C40.3908 18.7104 40.3063 16.8414 40.3605 14.9321C39.5237 16.6826 39.8892 18.5151 40.0946 20.3652C37.1065 17.8471 37.3598 13.5848 40.6542 10.8525V10.8538Z" fill="#036E49"/>
<path d="M47.1668 3.61182C48.2192 5.9383 47.3634 8.65548 44.5366 9.35494C44.9021 8.86595 45.2537 8.42611 45.5726 7.96358C45.8838 7.51114 46.1082 7.01459 46.1485 6.43108C45.4806 7.46073 44.8857 8.54458 43.8119 9.24277C42.8806 6.87848 44.65 4.59232 47.1681 3.61308L47.1668 3.61182Z" fill="#036E49"/>
<path d="M33.7094 5.46826C35.615 5.60311 37.9768 7.22384 37.6012 9.40288C36.5678 9.07772 35.9112 8.26862 35.1449 7.59436C35.4449 8.54462 36.2615 9.03613 36.9748 9.62343C34.8198 9.68014 33.3288 7.86407 33.7082 5.46826H33.7094Z" fill="#036E49"/>
<path d="M40.6373 0C43.0142 1.92446 43.0155 5.15079 41.0243 6.77278C40.4596 5.57299 40.5428 4.29001 40.442 2.96923C39.9644 3.63467 39.9202 4.57736 40.2114 6.60516C38.1483 4.89495 38.331 1.7833 40.6361 0.00126029L40.6373 0Z" fill="#036E49"/>
</svg>
