<svg width="32" height="32" viewBox="0 0 32 32" fill="none" xmlns="http://www.w3.org/2000/svg">
<path d="M0 16C0 7.16344 7.16344 0 16 0C24.8366 0 32 7.16344 32 16C32 24.8366 24.8366 32 16 32C7.16344 32 0 24.8366 0 16Z" fill="#FFF1F2"/>
<path d="M15.2531 23.4999C15.2016 23.4998 15.1506 23.4892 15.1035 23.4685C15.0563 23.4479 15.0139 23.4177 14.9789 23.3799L7.58554 15.3824C7.53625 15.3291 7.50358 15.2625 7.49152 15.1909C7.47946 15.1193 7.48853 15.0458 7.51762 14.9793C7.54672 14.9127 7.59458 14.8561 7.65534 14.8164C7.71611 14.7766 7.78714 14.7555 7.85975 14.7555H11.4185C11.4719 14.7555 11.5247 14.7669 11.5734 14.7891C11.622 14.8113 11.6653 14.8436 11.7004 14.8839L14.1713 17.7266C14.4383 17.1557 14.9552 16.2053 15.8623 15.0472C17.2034 13.335 19.6978 10.8169 23.9655 8.54382C24.048 8.4999 24.1439 8.4885 24.2344 8.51187C24.3249 8.53525 24.4033 8.5917 24.4542 8.67008C24.5051 8.74847 24.5247 8.84308 24.5093 8.93524C24.4938 9.02741 24.4443 9.11042 24.3706 9.16789C24.3544 9.18063 22.7089 10.4764 20.8152 12.8499C19.0723 15.034 16.7555 18.6055 15.6155 23.2162C15.5955 23.2972 15.5489 23.3692 15.4832 23.4206C15.4175 23.472 15.3364 23.5 15.253 23.5L15.2531 23.4999Z" fill="#FD707B"/>
</svg>
